<mxfile host="app.diagrams.net" modified="2024-03-22T03:56:37.609Z" agent="Mozilla/5.0 (X11; Linux x86_64) AppleWebKit/537.36 (KHTML, like Gecko) Chrome/122.0.0.0 Safari/537.36" version="24.0.7" etag="wuy8ZmTbKA5GTQbO7N_E" type="github">
  <diagram name="PÃ¡gina-1" id="RFAPTTlYF-qD6CtQajKZ">
    <mxGraphModel>
      <root>
        <mxCell id="0" />
        <mxCell id="1" parent="0" />
      </root>
    </mxGraphModel>
  </diagram>
</mxfile>
